<svg width="170" height="292" viewBox="0 0 170 292" fill="none" xmlns="http://www.w3.org/2000/svg">
<g clip-path="url(#clip0_1711_5090)">
<path d="M99.1952 4.76413C100.14 4.88883 100.644 5.14189 101.46 5.70668C101.651 5.83138 102.026 6.20913 102.342 6.45852C102.721 6.83628 103.034 7.21403 103.287 7.58812C104.67 9.47322 105.615 11.6701 106.369 13.9329C108.13 18.9574 109.137 24.1689 110.145 29.3805C111.465 36.2277 112.913 43.3244 111.968 50.355C111.277 55.5665 108.95 60.8441 105.615 64.9884C103.916 66.9981 101.905 68.8172 99.4489 69.8221C96.4927 71.0801 93.2204 71.1388 90.1392 70.3246C85.3557 69.0703 81.1421 65.9309 78.436 61.783C76.1086 58.2658 74.6599 53.9968 74.4099 49.7242C74.0312 43.0676 76.6123 36.5358 78.8147 30.3194C80.7634 24.8548 83.282 19.4562 86.7419 14.8058C87.1831 14.1786 87.4956 13.8009 88.0618 13.1114C88.4405 12.6713 88.8156 12.2312 89.1943 11.8571C91.2717 9.66026 93.4079 7.27271 95.989 5.70302C97.1214 5.07587 98.2539 4.69812 99.5114 4.88883C100.265 4.95118 100.894 4.19567 100.894 3.50618C100.894 2.69199 100.265 2.25189 99.5114 2.12352C96.114 1.68342 93.1579 4.07097 90.8305 6.20546C89.1943 7.71281 87.5581 9.34486 86.1131 11.0392C82.7783 14.9341 80.2009 19.5185 78.186 24.1653C76.5498 27.8695 75.2298 31.7644 74.0349 35.5932C72.9649 38.861 72.0825 42.2498 71.7075 45.7046C71.2074 50.7914 72.2737 55.8783 74.4761 60.4626C76.866 65.3624 80.7671 69.3197 85.6719 71.5789C88.5655 72.9615 91.7754 73.7757 95.0441 73.5887C98.5039 73.398 101.714 72.0813 104.416 70.0092C108.567 66.7414 111.523 61.5922 113.222 56.6961C115.737 49.5371 115.112 41.8757 113.851 34.526C112.843 28.4966 111.711 22.4049 110.012 16.5662C109.259 13.8669 108.314 11.1016 106.994 8.58935C105.924 6.5172 104.541 4.50741 102.589 3.19077C101.773 2.62597 100.828 2.24822 99.8202 2.06118C99.0665 1.93648 98.309 2.25189 98.1215 3.00373C98.059 3.69689 98.5002 4.63577 99.1915 4.76413H99.1952Z" fill="#C6C6C6"/>
<path d="M110.523 18.264C111.905 17.0097 112.722 15.374 113.604 13.8043C114.299 12.5463 115.115 11.292 116.56 10.7272C117.064 10.5365 117.568 10.4779 118.009 10.7272C118.7 11.105 118.954 11.7321 119.141 12.2346C119.836 14.182 120.461 16.1258 121.031 18.0769C122.289 22.599 123.171 27.3081 123.296 32.0172C123.358 34.9072 123.421 37.8595 123.358 40.7458C123.296 43.3828 123.046 45.7703 122.667 48.2202C121.66 54.565 120.465 61.4086 115.431 65.9306C110.714 70.1996 103.919 71.0798 97.8158 70.3243C97.0584 70.262 96.4297 71.0175 96.4297 71.707C96.4297 72.5248 97.0584 73.0273 97.8158 73.0896C103.728 73.7791 110.082 72.9649 115.115 69.6348C118.134 67.625 120.524 64.801 122.035 61.4709C123.542 58.2069 124.3 54.7521 124.928 51.2349C125.429 48.2202 125.932 45.2055 126.061 42.1908C126.186 38.8644 126.123 35.5343 126.061 32.2079C125.936 27.3081 124.991 22.3459 123.734 17.6992C123.105 15.3777 122.414 13.1148 121.531 10.8556C120.715 8.84581 118.762 7.58786 116.623 7.90326C114.674 8.215 113.038 9.53531 111.968 11.1673C110.835 12.8617 110.144 14.9376 108.57 16.3165C107.25 17.5121 109.199 19.4559 110.523 18.264Z" fill="#C6C6C6"/>
<path d="M102.72 5.45354C103.099 4.51099 103.603 2.87894 104.798 2.75425C104.989 2.75425 105.11 2.75425 105.364 2.87894C105.364 2.87894 105.743 3.06965 105.743 3.132C106.246 3.50976 106.559 3.94619 106.875 4.44864C107.82 5.83129 108.636 7.27629 109.519 8.65528C110.335 9.91323 111.155 11.2299 111.596 12.6749C112.1 14.3693 114.743 13.6798 114.24 11.923C113.673 9.97558 112.603 8.34354 111.533 6.64548C110.53 5.01344 109.585 3.2567 108.327 1.8117C107.132 0.429045 105.309 -0.451157 103.544 0.242002C101.595 0.993842 100.713 2.87894 100.021 4.7017C99.7714 5.39486 100.338 6.20905 100.966 6.39609C101.783 6.64548 102.478 6.14303 102.728 5.45354H102.72Z" fill="#C6C6C6"/>
<path d="M151.225 290.001C147.261 283.092 143.423 276.186 139.713 269.151C136.882 263.812 134.304 258.288 131.282 253.011C127.947 247.234 123.609 241.957 118.763 237.372C115.557 234.358 112.093 231.721 108.633 229.084C109.074 229.399 108.321 228.835 108.129 228.706C107.688 228.394 107.247 228.013 106.872 227.701C105.489 226.572 104.169 225.438 102.846 224.312C98.5661 220.608 94.3525 216.713 90.3264 212.756C81.8955 204.468 73.7808 195.739 66.6074 186.317C59.059 176.396 52.643 165.467 48.1132 153.849C44.4033 144.368 42.3884 134.506 39.9985 124.648C37.1674 112.967 34.3362 101.286 30.8764 89.7955C29.4277 85.0864 27.9827 80.436 25.2141 76.2917C21.4381 70.6401 15.967 66.0557 9.1723 64.7354C7.53613 64.4236 5.83745 64.2329 4.13878 64.2329C3.00633 64.2953 1.62385 64.3576 0.741423 65.1755C-0.957253 66.6828 0.616412 68.6303 1.93638 69.6352C4.3888 71.5203 7.15742 73.0276 9.80103 74.5973C12.8859 76.4164 15.9045 78.2391 18.8606 80.2489C23.5155 83.3883 27.8577 86.9678 32.2 90.5473C36.2886 93.9398 40.3772 97.3285 44.4033 100.783C54.2791 109.263 63.78 118.116 73.0271 127.285C78.4356 132.625 83.6604 138.214 88.7564 143.866C93.5399 149.139 98.1947 154.542 102.721 160.006C107.376 165.596 112.03 171.247 116.31 177.086C118.638 180.225 120.59 183.618 122.351 187.073C125.811 193.791 128.451 200.95 129.837 208.362C130.278 210.497 130.72 213.387 130.278 215.334C130.216 215.459 130.216 215.65 130.153 215.775C130.153 215.837 130.028 216.215 130.091 215.965C130.153 215.841 129.903 216.218 129.841 216.343C130.153 215.903 129.778 216.343 129.778 216.405C129.841 216.094 130.091 216.405 129.778 216.343C127.076 216.218 124.495 213.893 123.046 211.696C121.472 209.375 120.781 206.609 120.403 203.848C119.902 200.206 119.961 196.498 120.024 192.794C120.086 188.774 120.149 184.755 120.278 180.735C120.465 175.337 120.59 169.81 121.597 164.47C123.359 155.052 127.951 145.883 133.426 138.093C138.018 131.499 143.68 125.656 150.034 120.76C154.817 117.056 160.226 113.411 165.951 111.28C166.329 111.155 166.704 111.027 167.083 110.902C167.208 110.84 167.396 110.84 167.524 110.777C167.649 110.777 168.09 110.653 167.778 110.715C167.84 110.715 168.09 110.653 168.09 110.715C168.153 110.777 167.899 110.653 167.837 110.653C167.271 110.337 167.271 109.959 167.208 109.395C167.208 109.395 167.333 109.208 167.146 109.457C167.208 109.395 167.146 109.457 167.021 109.648C166.896 109.772 166.771 109.897 166.642 110.025C166.263 110.403 165.951 110.781 165.572 111.155C164.564 112.222 163.557 113.29 162.616 114.419C158.273 119.631 155.442 125.598 153.869 132.13C152.17 139.035 150.975 146.194 150.346 153.291C149.968 157.876 149.589 162.335 148.456 166.857C146.695 173.892 143.927 180.548 140.342 186.827C139.459 188.397 141.853 189.779 142.735 188.209C146.445 181.678 149.339 174.706 151.166 167.422C152.299 162.713 152.674 158.066 153.115 153.229C153.427 149.774 153.931 146.385 154.501 142.93C155.13 139.289 155.759 135.647 156.703 132.005C158.402 125.473 161.483 119.568 166.076 114.548C166.892 113.667 167.712 112.853 168.528 111.973C169.032 111.408 169.66 110.843 169.91 110.088C170.477 108.14 168.337 107.7 166.892 108.016C164.877 108.456 162.928 109.398 161.105 110.337C158.148 111.845 155.255 113.605 152.486 115.486C140.092 123.966 130.087 135.518 123.862 149.147C122.226 152.726 120.719 156.497 119.711 160.325C118.391 165.101 118.013 170.121 117.763 175.083C117.384 182.745 117.134 190.469 117.259 198.068C117.384 204.035 118.013 210.754 122.417 215.276C124.807 217.726 130.973 221.621 132.734 216.721C133.363 214.898 133.238 212.763 132.988 210.878C132.547 206.921 131.54 203.03 130.345 199.26C127.197 189.335 122.355 180.295 116.001 172.065C106.817 160.259 97.1909 148.765 87.0614 137.715C81.0829 131.246 74.9206 125.029 68.5671 118.875C60.4525 111.023 52.0841 103.428 43.4657 96.1403C33.9649 88.1671 24.5928 80.0656 13.897 73.6584C10.8783 71.8393 7.731 70.1413 4.77486 68.1315C4.33365 67.8821 3.95861 67.5667 3.5799 67.2513C3.45489 67.1266 3.26738 67.0019 3.13869 66.8735C3.07618 66.8112 2.63497 66.3711 2.82616 66.4958C2.63497 66.3051 2.76366 66.3051 2.76366 66.4334C2.76366 66.3087 2.70115 66.9359 2.70115 66.9359C2.76366 67.1853 2.32244 66.9359 2.70115 66.9982C2.89234 67.0606 3.32988 66.8735 3.5174 66.8075C6.34853 66.4958 9.55836 67.1192 12.1358 68.1902C15.5331 69.5105 18.4893 72.0227 20.8167 74.7843C24.3391 78.8663 26.1664 83.6414 27.7364 88.7282C29.4976 94.4422 31.0713 100.219 32.5824 105.999C35.2223 116.11 37.6784 126.284 40.0684 136.52C43.0245 149.077 47.6793 161.136 54.1615 172.314C58.9413 180.603 64.6661 188.327 70.8946 195.614C80.0167 206.228 89.8337 216.339 100.401 225.57C105.622 230.092 111.409 233.987 116.443 238.696C121.414 243.281 125.752 248.558 129.15 254.397C132.231 259.733 134.812 265.323 137.705 270.787C141.353 277.697 145.129 284.478 148.964 291.197C149.718 292.957 152.111 291.512 151.229 290.005L151.225 290.001Z" fill="#C6C6C6"/>
<path d="M96.4884 71.3916C94.8522 83.2597 94.2235 95.2561 94.7897 107.253C95.356 119.498 97.3047 131.682 99.0033 143.865C100.639 155.422 102.401 166.974 104.728 178.468C106.993 189.834 109.887 201.137 113.159 212.253C116.494 223.619 120.332 234.798 124.608 245.851C125.237 247.484 125.866 249.119 126.561 250.751C126.811 251.441 127.506 251.943 128.26 251.694C128.888 251.503 129.517 250.689 129.204 249.999C124.675 238.634 120.524 227.078 116.939 215.334C113.604 204.409 110.648 193.417 108.32 182.238C105.93 171.06 104.107 159.757 102.408 148.453C100.647 136.395 98.6982 124.273 97.8157 112.028C96.9333 99.7818 97.2495 87.4737 98.6982 75.2902C98.8232 74.2853 98.9482 73.218 99.0769 72.2131C99.2019 71.4613 98.8857 70.7058 98.1319 70.5187C97.5657 70.2657 96.6245 70.6434 96.4958 71.3989L96.4884 71.3916Z" fill="#C6C6C6"/>
</g>
<defs>
<clipPath id="clip0_1711_5090">
<rect width="170" height="292" fill="white"/>
</clipPath>
</defs>
</svg>
