<svg width="162" height="204" viewBox="0 0 162 204" fill="none" xmlns="http://www.w3.org/2000/svg">
<g clip-path="url(#clip0_1711_5711)">
<path d="M67.7913 196.562C65.6414 195.205 62.7128 191.631 59.0056 185.839C58.9974 185.824 58.9901 185.812 58.9819 185.797C51.502 171.348 47.0707 162.427 45.6938 159.037L45.7047 159.064C39.816 146.613 35.9449 133.97 34.0954 121.137C34.0952 121.132 34.0949 121.128 34.0946 121.123C30.4998 90.7135 34.8936 67.5067 47.2738 51.4994C47.4459 51.2761 47.7676 51.2334 47.9901 51.4076C48.2143 51.5809 48.2555 51.9004 48.0816 52.1247C35.8735 67.9087 31.5476 90.8689 35.1112 121.001L35.1104 120.987C36.9457 133.721 40.7869 146.267 46.6311 158.624C46.6363 158.633 46.6404 158.64 46.6438 158.65C48.0117 162.013 52.4264 170.905 59.8936 185.328L59.8709 185.289C63.4956 190.955 66.3207 194.424 68.3416 195.698C68.5812 195.848 68.6518 196.165 68.5 196.403C68.3492 196.643 68.0319 196.714 67.7942 196.563L67.7913 196.562Z" fill="white"/>
<mask id="mask0_1711_5711" style="mask-type:luminance" maskUnits="userSpaceOnUse" x="38" y="10" width="56" height="43">
<path d="M84.8281 10.4558L38.25 37.3477L47.1952 52.8412L93.7733 25.9494L84.8281 10.4558Z" fill="white"/>
</mask>
<g mask="url(#mask0_1711_5711)">
<path d="M46.7982 51.2603C49.91 43.1306 52.5122 37.2759 54.6029 33.6925C56.9591 29.6793 59.6968 26.3849 62.8105 23.8078L62.8051 23.8109C65.5272 21.4908 69.2455 19.8327 73.9638 18.839C73.9674 18.837 73.972 18.8367 73.9766 18.8364C78.2655 18.0549 82.415 18.2525 86.4236 19.4229C86.4292 19.4244 86.4349 19.4259 86.4415 19.4292C89.375 20.4051 91.0109 21.2149 91.3499 21.8558C91.4637 22.0737 91.4847 22.288 91.4121 22.5016C91.3679 22.632 91.2914 22.7477 91.1827 22.8533C91.1221 22.9097 91.0502 22.9631 90.9689 23.0125L91.062 22.9421C91.062 22.9421 91.0566 22.9452 91.054 22.949C90.8592 23.133 90.4127 23.3694 89.7127 23.6591L89.7038 23.6643C82.9674 26.3022 79.3393 27.7771 78.8158 28.0913C78.7997 28.1006 78.7818 28.1109 78.7636 28.1167C76.6867 29.0631 74.7242 30.158 72.8771 31.4032C70.8806 32.7537 68.9829 34.2712 67.1877 35.9537C67.1797 35.9606 67.1718 35.9676 67.1639 35.9745C66.5137 36.512 64.2757 38.8719 60.4502 43.0589C60.4459 43.0638 60.4415 43.0687 60.4372 43.0736C57.8656 45.6833 56.3195 47.1766 55.8037 47.5578L55.8267 47.5398C55.2136 48.0463 54.5243 48.5158 53.7604 48.9473C53.7443 48.9566 53.7281 48.9659 53.7099 48.9716C50.3372 50.4088 48.4145 51.3783 47.9402 51.8809C47.7457 52.0862 47.422 52.0967 47.2159 51.901C47.0108 51.7072 47.002 51.3857 47.1965 51.1805C47.7677 50.5766 49.806 49.5261 53.3089 48.0329L53.2567 48.0583C53.9686 47.6568 54.6081 47.2208 55.1761 46.7522C55.1833 46.7481 55.1912 46.7411 55.1991 46.7342C55.6742 46.386 57.1779 44.9267 59.7101 42.3564L59.6971 42.3711C63.553 38.1498 65.826 35.7554 66.5143 35.1888L66.4905 35.2097C68.3272 33.4914 70.2656 31.9408 72.3056 30.5581C74.199 29.2814 76.2117 28.1575 78.3418 27.1875L78.2916 27.2164C78.8624 26.8726 82.5446 25.3712 89.3324 22.7107L89.3235 22.7159C89.9084 22.4711 90.2523 22.3012 90.3559 22.2033C90.383 22.1757 90.4149 22.1525 90.449 22.1328C90.4651 22.1235 90.4777 22.1163 90.4828 22.1085C90.4669 22.1225 90.4562 22.1453 90.445 22.1756C90.4237 22.238 90.4249 22.2897 90.4458 22.3301C90.2341 21.9303 88.7904 21.2837 86.1168 20.3937L86.1348 20.4C82.2807 19.2739 78.2894 19.0851 74.1581 19.8376L74.1709 19.835C69.6256 20.7931 66.0576 22.3764 63.4669 24.5848L63.4598 24.5889C60.439 27.0909 57.7784 30.2955 55.4836 34.2041C53.4187 37.7369 50.8432 43.5429 47.7487 51.6196C47.6475 51.883 47.3515 52.0158 47.089 51.9171C46.8255 51.8166 46.6932 51.5211 46.7943 51.2577L46.7982 51.2603Z" fill="white"/>
</g>
<path d="M33.212 88.0025C22.4385 78.7772 17.5457 66.6073 18.5308 51.4918C18.8267 46.604 19.9996 42.1965 22.0552 38.271L22.0585 38.2644C24.7099 33.3513 27.7165 29.7778 31.0784 27.5436C31.2549 27.4274 31.4812 27.4302 31.656 27.551C31.828 27.6709 31.9093 27.8862 31.8592 28.0891C29.262 38.7033 28.1753 45.2752 28.5943 47.8053C28.5975 47.8273 28.6007 47.8494 28.5992 47.8717C28.667 49.9133 29.0283 52.36 29.6832 55.2116L29.679 55.1878C33.1761 67.6011 34.943 74.3775 34.9802 75.5096L34.953 75.3632C35.3907 76.6551 35.1251 80.2836 34.1537 86.2527C34.109 86.5311 33.846 86.7211 33.5663 86.6753C33.2876 86.6312 33.0979 86.3689 33.1444 86.0894C34.0868 80.2896 34.3676 76.8239 33.9838 75.6916C33.968 75.6435 33.9586 75.5941 33.9567 75.5452C33.9223 74.4925 32.1659 67.8005 28.692 55.4645C28.6896 55.4563 28.6873 55.4481 28.686 55.4417C28.0163 52.5272 27.6483 50.0152 27.5785 47.908L27.5844 47.9761C27.1415 45.3096 28.2349 38.6002 30.864 27.8509L31.643 28.3975C28.4247 30.5368 25.5313 33.9878 22.9582 38.7508L22.9615 38.7441C20.9741 42.5396 19.8367 46.8098 19.5536 51.5543C18.5913 66.3325 23.3656 78.2229 33.8814 87.2251C34.0951 87.4092 34.1206 87.7305 33.9359 87.9444C33.7512 88.1583 33.4294 88.1844 33.2138 88.0014L33.212 88.0025Z" fill="white"/>
<path d="M33.1693 87.4851C33.0439 87.1189 33.0835 86.4262 33.2819 85.4083L33.2849 85.397C33.3301 85.1898 33.3907 84.976 33.4674 84.753L33.4401 84.9332C33.4391 84.8695 33.4491 84.8041 33.4709 84.7343C33.5088 84.6219 33.654 84.2734 33.9095 83.6897L33.8991 83.7172L33.8961 83.7285C33.9915 83.4469 34.0519 83.2452 34.0753 83.1244C34.1303 82.8472 34.3974 82.6644 34.6749 82.7187C34.9523 82.773 35.1331 83.0405 35.0799 83.3167C35.0453 83.4844 34.9756 83.732 34.8624 84.0573L34.8593 84.0685C34.8593 84.0685 34.8537 84.0837 34.8489 84.096C34.6064 84.6484 34.4723 84.9665 34.4456 85.0487C34.4599 85.0071 34.4653 84.9586 34.4649 84.9041C34.4649 84.9661 34.4563 85.0258 34.4376 85.0843C34.3743 85.2686 34.3236 85.4457 34.2862 85.6126L34.2893 85.6013C34.1249 86.4423 34.0759 86.9616 34.143 87.1564C34.233 87.4239 34.0898 87.7139 33.8218 87.8043C33.5539 87.8946 33.2638 87.7522 33.1739 87.4848L33.1693 87.4851Z" fill="white"/>
<path d="M33.9942 113.119C33.5744 105.291 38.8016 95.487 49.6802 83.7027C49.6845 83.6978 49.6889 83.6929 49.6932 83.688C53.3288 80.0492 57.3265 77.1453 61.6878 74.9705L61.6573 74.9881C64.3015 73.4352 69.2849 71.8619 76.6084 70.2699C76.7081 70.2481 76.8132 70.2565 76.909 70.2941C77.2717 70.4422 77.3785 70.6976 77.2287 71.063C77.2046 71.1246 77.1673 71.1842 77.1219 71.2462C77.0522 71.3365 76.9507 71.438 76.8128 71.551C76.7995 71.561 76.7862 71.5711 76.7747 71.5801C73.5595 73.7248 70.7772 75.7626 68.4249 77.6928L68.4285 77.6907C66.2052 79.5464 64.2098 81.3706 62.4413 83.1615L62.4359 83.1646C60.668 84.9194 58.6594 87.2256 56.4111 90.0848L56.4326 90.0558C50.5613 98.6655 47.0542 103.474 45.9129 104.481L45.9541 104.441C44.7301 105.789 43.3417 107.112 41.7897 108.413L41.8266 108.378C41.3522 108.864 39.5247 110.126 36.3468 112.166L36.3734 112.146C35.752 112.605 35.3269 113.015 35.0952 113.375C34.9406 113.612 34.6251 113.682 34.3881 113.528C34.1511 113.374 34.0825 113.061 34.2343 112.823C34.5338 112.357 35.0446 111.86 35.7681 111.325C35.776 111.318 35.7868 111.312 35.7947 111.305C38.9083 109.307 40.6747 108.092 41.0959 107.663C41.1072 107.649 41.1205 107.639 41.1327 107.627C42.6476 106.357 44.0028 105.067 45.1963 103.753C45.2094 103.739 45.2234 103.726 45.2375 103.713C46.3153 102.762 49.7642 98.0173 55.5878 89.4781C55.5936 89.4675 55.6005 89.4588 55.6092 89.449C57.8843 86.5576 59.9208 84.221 61.7193 82.4366L61.714 82.4397C63.507 80.6251 65.5262 78.78 67.7732 76.9034L67.7768 76.9014C70.1555 74.9465 72.9644 72.8885 76.2083 70.7273L76.1683 70.7575C76.2436 70.6974 76.2901 70.6538 76.3108 70.6276C76.3013 70.6402 76.2911 70.6556 76.285 70.6782C76.1757 70.944 76.2553 71.1316 76.5258 71.24L76.8275 71.266C69.6129 72.8357 64.7282 74.3687 62.1772 75.8678C62.1682 75.873 62.1575 75.8792 62.1467 75.8854C57.8852 78.0097 53.9774 80.8499 50.4205 84.4098L50.4336 84.3951C39.75 95.9668 34.6109 105.522 35.0174 113.062C35.034 113.343 34.8166 113.583 34.535 113.601C34.2524 113.616 34.0126 113.399 33.996 113.118L33.9942 113.119Z" fill="white"/>
<path d="M39.9439 147.352C39.3897 146.628 34.1648 142.904 24.2684 136.183C24.2617 136.179 24.2568 136.175 24.2519 136.171C21.8494 134.397 19.5868 132.56 17.4655 130.652C12.9251 126.55 9.36453 122.079 6.78351 117.236L6.78041 117.231C0.179362 104.531 -0.676745 92.3763 4.21285 80.7628C4.27848 80.6033 4.42096 80.4901 4.58962 80.4595C4.75905 80.426 4.93185 80.4811 5.05026 80.6035C5.0621 80.6157 5.07394 80.6279 5.08578 80.6402C5.28947 80.873 5.42339 81.258 5.48936 81.7944L5.48778 81.7834C6.13002 86.3346 6.57805 89.2293 6.83338 90.462L6.83648 90.4673C7.17315 92.2298 7.55063 93.852 7.96893 95.3338C8.96761 98.8926 10.3979 102.417 12.2558 105.904L12.2579 105.907C13.4055 108.115 15.1155 110.712 17.3875 113.696C17.4065 113.72 17.422 113.747 17.4375 113.774L17.4354 113.77C17.6904 114.229 20.9501 118.232 27.2172 125.78C27.2192 125.784 27.2223 125.789 27.2262 125.792C30.6121 130.113 32.4734 132.558 32.81 133.129L32.7915 133.097C33.5099 134.139 34.0369 134.952 34.3688 135.535L34.376 135.548C38.054 142.46 40.0961 146.117 40.4992 146.526C40.3574 146.384 40.1814 146.369 39.973 146.479L39.9873 146.471L39.9569 146.489C40.2006 146.348 40.513 146.43 40.6544 146.675C40.7958 146.92 40.7104 147.231 40.4667 147.372C40.456 147.378 40.447 147.383 40.4363 147.389L40.4506 147.381C40.2135 147.508 39.9877 147.465 39.773 147.25C39.2981 146.771 37.1975 143.033 33.4707 136.032L33.478 136.045C33.1606 135.487 32.6508 134.699 31.946 133.685C31.9399 133.675 31.9337 133.664 31.9275 133.653C31.6135 133.122 29.7775 130.711 26.4186 126.425L26.4258 126.437C20.1206 118.839 16.8236 114.784 16.5394 114.271C16.5333 114.26 16.5271 114.25 16.5237 114.24L16.5737 114.318C14.2675 111.288 12.5278 108.643 11.352 106.383L11.3541 106.386C9.46258 102.833 8.00621 99.2427 6.98753 95.612C6.56016 94.1021 6.17642 92.4525 5.83247 90.6609L5.83557 90.6662C5.57529 89.4126 5.12335 86.4987 4.47795 81.9254L4.47638 81.9144C4.43575 81.5875 4.38402 81.3862 4.31939 81.3115L5.15679 81.1521C0.390849 92.475 1.23545 104.341 7.68831 116.759L7.68521 116.754C10.2117 121.49 13.6994 125.871 18.1508 129.894C20.2484 131.777 22.4841 133.597 24.8621 135.349L24.8457 135.337C34.8357 142.121 40.1391 145.919 40.7595 146.728C40.9293 146.952 40.887 147.272 40.6619 147.445C40.4375 147.615 40.1173 147.573 39.9447 147.349L39.9439 147.352Z" fill="white"/>
<path d="M50.8812 170.134C46.6368 153.554 46.4968 140.583 50.4656 131.215L50.4511 131.252C54.6325 118.817 62.1023 110.667 72.8575 106.801L72.7978 106.826C73.1504 106.646 73.4097 106.723 73.5762 107.048C73.6434 107.181 73.6552 107.334 73.6096 107.503C73.5122 107.877 72.9063 108.913 71.7882 110.61C71.7856 110.613 71.7831 110.617 71.7805 110.621C66.0526 118.85 63.0788 123.229 62.8616 123.755C62.8616 123.755 62.8633 123.754 62.8641 123.751C62.8529 123.782 62.8382 123.814 62.8213 123.843C61.38 126.201 60.3034 128.333 59.5926 130.243C58.9163 132.08 58.4242 134.257 58.1104 136.771C58.081 137.01 57.889 137.195 57.6513 137.218C57.4118 137.242 57.1881 137.094 57.1163 136.866C57.2195 137.186 57.4315 137.292 57.7543 137.189C57.9362 137.132 58.0453 137.019 58.0838 136.854C57.9769 137.318 57.5241 142.592 56.7271 152.675L56.7256 152.68C56.5798 154.29 56.3465 155.814 56.0278 157.257L56.0247 157.268C54.7216 162.53 53.0687 166.466 51.0661 169.076C50.895 169.301 50.5732 169.344 50.35 169.173C50.124 169 50.0829 168.681 50.255 168.458C52.1726 165.961 53.7644 162.151 55.0321 157.026L55.0301 157.039C55.3402 155.64 55.5667 154.157 55.7096 152.592L55.7081 152.598C56.5105 142.467 56.9688 137.145 57.0858 136.631C57.1325 136.418 57.2523 136.282 57.4414 136.221C57.7678 136.116 57.9829 136.228 58.0884 136.555L57.0925 136.651C57.4147 134.06 57.9274 131.807 58.6298 129.895L58.6316 129.894C59.3637 127.922 60.4702 125.73 61.9462 123.316L61.9016 123.409C61.9016 123.409 61.9095 123.385 61.9171 123.373C62.1618 122.779 65.1698 118.335 70.9414 110.045L70.9337 110.057C71.9878 108.452 72.5506 107.519 72.6192 107.253C72.5979 107.332 72.6123 107.419 72.6617 107.517C72.8042 107.797 73.0022 107.871 73.2596 107.741C73.2416 107.752 73.2217 107.758 73.1999 107.766C62.7559 111.522 55.495 119.459 51.4192 131.58C51.4144 131.592 51.4113 131.603 51.4047 131.617C47.527 140.77 47.6821 153.528 51.8698 169.885C51.9388 170.157 51.7745 170.436 51.4998 170.506C51.2261 170.578 50.9468 170.413 50.8768 170.139L50.8812 170.134Z" fill="white"/>
</g>
<defs>
<clipPath id="clip0_1711_5711">
<rect width="121" height="165" fill="white" transform="translate(-26 60.5) rotate(-30)"/>
</clipPath>
</defs>
</svg>
